<svg width="34" height="34" viewBox="0 0 34 34" fill="none" xmlns="http://www.w3.org/2000/svg">
<path d="M16.9999 2.83331C17.7876 2.83331 18.5583 2.89565 19.3119 3.02031L16.6599 5.67231C14.449 5.73866 12.3059 6.4505 10.4947 7.72008C8.68346 8.98966 7.28333 10.7615 6.46688 12.8172C5.65043 14.8728 5.45335 17.1225 5.89994 19.2888C6.34653 21.4551 7.41726 23.4434 8.98016 25.0086C10.543 26.5738 12.5298 27.6474 14.6954 28.0971C16.8611 28.5469 19.111 28.3531 21.1679 27.5396C23.2248 26.7262 24.9986 25.3286 26.2708 23.5192C27.5431 21.7099 28.258 19.5678 28.3276 17.357L30.9824 14.705C31.1052 15.4511 31.1666 16.2161 31.1666 17C31.1666 19.8019 30.3357 22.5409 28.7791 24.8706C27.2224 27.2003 25.0099 29.016 22.4213 30.0883C19.8327 31.1605 16.9842 31.4411 14.2361 30.8944C11.4881 30.3478 8.96382 28.9986 6.98258 27.0173C5.00133 25.0361 3.65209 22.5118 3.10547 19.7638C2.55884 17.0157 2.83939 14.1672 3.91163 11.5786C4.98387 8.99001 6.79965 6.77748 9.12935 5.22083C11.459 3.66417 14.198 2.83331 16.9999 2.83331ZM29.5828 4.42565C29.0792 3.92199 28.4813 3.52247 27.8233 3.24989C27.1653 2.97731 26.4601 2.83701 25.7478 2.83701C25.0356 2.83701 24.3304 2.97731 23.6724 3.24989C23.0144 3.52247 22.4165 3.92199 21.9129 4.42565L14.5916 11.747C14.4374 11.9016 14.3211 12.0897 14.2516 12.2966L11.4636 20.57C11.3711 20.8448 11.357 21.1401 11.4231 21.4224C11.4893 21.7048 11.6328 21.9631 11.8378 22.1683C12.0427 22.3736 12.3008 22.5175 12.5831 22.584C12.8654 22.6505 13.1606 22.637 13.4356 22.5448L21.7089 19.7625C21.9169 19.6934 22.106 19.577 22.2614 19.4225L29.5828 12.0983C30.0864 11.5947 30.4859 10.9969 30.7585 10.3389C31.0311 9.68087 31.1714 8.97562 31.1714 8.2634C31.1714 7.55117 31.0311 6.84592 30.7585 6.18792C30.4859 5.52992 30.0864 4.92923 29.5828 4.42565ZM23.9161 6.43165C24.4019 5.94584 25.0608 5.67291 25.7478 5.67291C26.4349 5.67291 27.0938 5.94584 27.5796 6.43165C28.0654 6.91746 28.3383 7.57636 28.3383 8.2634C28.3383 8.95044 28.0654 9.60934 27.5796 10.0951L20.4906 17.1785L14.9684 19.0371L16.8271 13.5178L23.9161 6.43165Z" fill="#E5E7EB"/>
</svg>
