<svg width="50" height="45" viewBox="0 0 50 45" fill="none" xmlns="http://www.w3.org/2000/svg">
<path d="M35.9712 20.2105L39.8505 27.0789L35.9712 27.8421V32.4211H33.6436L28.9883 31.6579L28.2125 37H16.5744L15.0227 29.0777C12.633 26.8523 11.1433 23.7027 11.1433 20.2105C11.1433 13.4665 16.7009 8 23.5572 8C30.4136 8 35.9712 13.4665 35.9712 20.2105Z" stroke="#E5E7EB" stroke-width="2" stroke-linecap="round" stroke-linejoin="round"/>
<path d="M19.3455 18.75C19.3455 18.0083 19.586 17.2833 20.0366 16.6666C20.4872 16.0499 21.1277 15.5693 21.8771 15.2855C22.6265 15.0016 23.451 14.9274 24.2466 15.0721C25.0421 15.2168 25.7728 15.5739 26.3464 16.0984C26.9199 16.6228 27.3105 17.291 27.4687 18.0184C27.627 18.7458 27.5457 19.4998 27.2354 20.1851C26.925 20.8703 26.3993 21.456 25.7249 21.868C25.0505 22.2801 24.2576 22.5 23.4465 22.5V24.75M23.4465 29.25V30" stroke="#E5E7EB" stroke-width="2" stroke-linecap="round" stroke-linejoin="round"/>
</svg>
