<svg width="50" height="45" viewBox="0 0 50 45" fill="none" xmlns="http://www.w3.org/2000/svg">
<path d="M21.0707 22.9559V13.2C21.0707 12.0861 21.5189 11.0178 22.3169 10.2302C23.1148 9.4425 24.197 9 25.3254 9C26.4538 9 27.536 9.4425 28.3339 10.2302C29.1318 11.0178 29.5801 12.0861 29.5801 13.2V14.6042M29.5801 23.0021V32.8C29.5801 33.9139 29.1318 34.9822 28.3339 35.7698C27.536 36.5575 26.4538 37 25.3254 37C24.197 37 23.1148 36.5575 22.3169 35.7698C21.5189 34.9822 21.0707 33.9139 21.0707 32.8V31.379" stroke="#E5E7EB" stroke-width="2.4" stroke-linecap="round"/>
<path d="M25.3257 27.4H15.3867C13.0437 27.4 11.1433 25.5198 11.1433 23.2C11.1433 20.8802 13.0437 19 15.3867 19H16.8084M25.3257 19H35.2455C36.3749 18.9991 37.4585 19.441 38.2578 20.2287C39.0572 21.0163 39.5069 22.0851 39.508 23.2C39.508 25.5198 37.5998 27.4 35.2455 27.4H33.8819" stroke="#E5E7EB" stroke-width="2.4" stroke-linecap="round"/>
</svg>
