<svg width="37" height="37" viewBox="0 0 37 37" fill="none" xmlns="http://www.w3.org/2000/svg">
<path d="M26.2854 31.265C24.7746 32.7296 23.125 32.4983 21.5371 31.8046C19.8567 31.0954 18.315 31.0646 16.5421 31.8046C14.3221 32.7604 13.1504 32.4829 11.8246 31.265C4.30125 23.5104 5.41125 11.7012 13.9521 11.2696C16.0333 11.3775 17.4825 12.4104 18.7004 12.5029C20.5196 12.1329 22.2617 11.0692 24.2042 11.2079C26.5321 11.3929 28.2896 12.3179 29.4458 13.9829C24.6358 16.8658 25.7767 23.2021 30.1858 24.975C29.3071 27.2875 28.1663 29.5846 26.27 31.2804L26.2854 31.265ZM18.5462 11.1771C18.315 7.73917 21.1054 4.9025 24.3121 4.625C24.7592 8.6025 20.7046 11.5625 18.5462 11.1771Z" fill="#A2A5AC"/>
</svg>
