<svg width="35" height="35" viewBox="0 0 35 35" fill="none" xmlns="http://www.w3.org/2000/svg">
<path d="M25.1665 9.05422C23.9714 7.84832 22.5207 6.92628 20.9215 6.35619C19.3222 5.78609 17.6154 5.58251 15.9269 5.76048C10.694 6.28805 6.38793 10.5371 5.80332 15.77C5.0191 22.6855 10.3661 28.5172 17.1104 28.5172C19.2636 28.5172 21.3726 27.9063 23.1924 26.7554C25.0122 25.6044 26.4681 23.9607 27.3909 22.0153C27.8472 21.06 27.1627 19.9621 26.1076 19.9621C25.58 19.9621 25.081 20.2472 24.8528 20.7178C24.025 22.4987 22.6091 23.9402 20.8432 24.7998C19.0774 25.6593 17.0694 25.8845 15.157 25.4374C11.9916 24.7387 9.43927 22.1579 8.76912 18.9925C8.48741 17.7409 8.49067 16.4421 8.77866 15.192C9.06665 13.9419 9.632 12.7725 10.4329 11.7704C11.2338 10.7682 12.2497 9.95897 13.4056 9.40244C14.5614 8.84591 15.8276 8.55634 17.1104 8.55517C19.4773 8.55517 21.5876 9.53901 23.1276 11.0932L20.9745 13.2463C20.0762 14.1445 20.7036 15.6845 21.9726 15.6845H27.0915C27.8757 15.6845 28.5173 15.0428 28.5173 14.2586V9.13977C28.5173 7.87075 26.9774 7.22911 26.0791 8.12741L25.1665 9.05422Z" fill="#E2E8F0"/>
</svg>
