<svg width="34" height="34" viewBox="0 0 34 34" fill="none" xmlns="http://www.w3.org/2000/svg">
<path d="M25.0041 8.99586C23.8166 7.79774 22.3753 6.88164 20.7864 6.31523C19.1975 5.74881 17.5016 5.54655 15.8241 5.72336C10.6249 6.24753 6.34655 10.4692 5.76572 15.6684C4.98655 22.5392 10.2991 28.3334 16.9999 28.3334C19.1392 28.3334 21.2346 27.7263 23.0427 26.5828C24.8507 25.4393 26.2972 23.8063 27.2141 21.8734C27.6674 20.9242 26.9874 19.8334 25.9391 19.8334C25.4149 19.8334 24.9191 20.1167 24.6924 20.5842C23.8699 22.3536 22.4631 23.7858 20.7086 24.6398C18.9541 25.4939 16.9591 25.7176 15.0591 25.2734C11.9141 24.5792 9.37822 22.015 8.71239 18.87C8.4325 17.6266 8.43574 16.3361 8.72187 15.094C9.008 13.852 9.5697 12.6902 10.3654 11.6945C11.1611 10.6988 12.1705 9.89478 13.3189 9.34184C14.4673 8.78889 15.7253 8.50119 16.9999 8.50003C19.3516 8.50003 21.4482 9.47753 22.9782 11.0217L20.8391 13.1609C19.9466 14.0534 20.5699 15.5834 21.8307 15.5834H26.9166C27.6957 15.5834 28.3332 14.9459 28.3332 14.1667V9.08086C28.3332 7.82003 26.8032 7.18253 25.9107 8.07503L25.0041 8.99586Z" fill="#E2E8F0"/>
</svg>
