<svg width="31" height="31" viewBox="0 0 31 31" fill="none" xmlns="http://www.w3.org/2000/svg">
<path d="M19.375 15.5C19.375 16.5277 18.9667 17.5133 18.24 18.24C17.5133 18.9667 16.5277 19.375 15.5 19.375C14.4723 19.375 13.4867 18.9667 12.76 18.24C12.0333 17.5133 11.625 16.5277 11.625 15.5C11.625 14.4723 12.0333 13.4867 12.76 12.76C13.4867 12.0333 14.4723 11.625 15.5 11.625C16.5277 11.625 17.5133 12.0333 18.24 12.76C18.9667 13.4867 19.375 14.4723 19.375 15.5Z" stroke="#7E8794" stroke-opacity="0.76" stroke-width="2.5" stroke-linecap="round" stroke-linejoin="round"/>
<path d="M2.58334 15.5C4.65001 10.2081 9.47568 6.45834 15.5 6.45834C21.5243 6.45834 26.35 10.2081 28.4167 15.5C26.35 20.792 21.5243 24.5417 15.5 24.5417C9.47568 24.5417 4.65001 20.792 2.58334 15.5Z" stroke="#7E8794" stroke-opacity="0.76" stroke-width="2.5" stroke-linecap="round" stroke-linejoin="round"/>
</svg>
