<svg width="36" height="34" viewBox="0 0 36 34" fill="none" xmlns="http://www.w3.org/2000/svg">
<path d="M15.4021 29.75C15.6654 30.1807 16.0441 30.5383 16.5002 30.787C16.9562 31.0356 17.4735 31.1665 18.0001 31.1665C18.5267 31.1665 19.044 31.0356 19.5 30.787C19.9561 30.5383 20.3348 30.1807 20.5981 29.75" stroke="#9CA3AF" stroke-width="2" stroke-linecap="round" stroke-linejoin="round"/>
<path d="M4.89288 21.7119C4.69693 21.9147 4.56761 22.167 4.52066 22.4379C4.47372 22.7089 4.51116 22.9869 4.62844 23.2382C4.74572 23.4894 4.93778 23.7031 5.18126 23.8531C5.42474 24.0032 5.70915 24.0832 5.99988 24.0834H29.9999C30.2906 24.0835 30.575 24.0038 30.8187 23.854C31.0623 23.7043 31.2546 23.4909 31.3722 23.2398C31.4898 22.9887 31.5276 22.7107 31.481 22.4397C31.4345 22.1687 31.3055 21.9164 31.1099 21.7133C29.1149 19.771 26.9999 17.707 26.9999 11.3334C26.9999 9.07903 26.0517 6.91703 24.3638 5.32297C22.676 3.72891 20.3868 2.83337 17.9999 2.83337C15.6129 2.83337 13.3237 3.72891 11.6359 5.32297C9.94809 6.91703 8.99988 9.07903 8.99988 11.3334C8.99988 17.707 6.88338 19.771 4.89288 21.7119Z" stroke="#9CA3AF" stroke-width="2" stroke-linecap="round" stroke-linejoin="round"/>
</svg>
