<svg width="40" height="40" viewBox="0 0 40 40" fill="none" xmlns="http://www.w3.org/2000/svg">
<path d="M36.6667 20H32.5334C31.805 19.9984 31.0961 20.2355 30.5152 20.6749C29.9343 21.1144 29.5134 21.732 29.3167 22.4333L25.4 36.3666C25.3748 36.4532 25.3222 36.5292 25.25 36.5833C25.1779 36.6374 25.0902 36.6666 25 36.6666C24.9099 36.6666 24.8222 36.6374 24.75 36.5833C24.6779 36.5292 24.6253 36.4532 24.6 36.3666L15.4 3.63331C15.3748 3.54677 15.3222 3.47074 15.25 3.41665C15.1779 3.36255 15.0902 3.33331 15 3.33331C14.9099 3.33331 14.8222 3.36255 14.75 3.41665C14.6779 3.47074 14.6253 3.54677 14.6 3.63331L10.6834 17.5666C10.4875 18.2652 10.069 18.8808 9.49148 19.32C8.91395 19.7592 8.20891 19.9979 7.48337 20H3.33337" stroke="#99A1AF" stroke-width="3" stroke-linecap="round" stroke-linejoin="round"/>
</svg>
