<svg width="25" height="25" viewBox="0 0 25 25" fill="none" xmlns="http://www.w3.org/2000/svg">
<path d="M11.1381 17.2134H13.1632V11.1381H11.1381V17.2134ZM12.8726 8.82235C13.0663 8.62794 13.1632 8.38729 13.1632 8.1004C13.1632 7.81351 13.066 7.5732 12.8716 7.37947C12.6772 7.18573 12.4369 7.08853 12.1507 7.08785C11.8644 7.08718 11.6241 7.18438 11.4297 7.37947C11.2353 7.57455 11.1381 7.81486 11.1381 8.1004C11.1381 8.38594 11.2353 8.62659 11.4297 8.82235C11.6241 9.01811 11.8644 9.11498 12.1507 9.11295C12.4369 9.11093 12.6775 9.01372 12.8726 8.82134M12.1507 22.2761C10.75 22.2761 9.43364 22.0101 8.20171 21.4782C6.96977 20.9463 5.89815 20.225 4.98686 19.3144C4.07556 18.4038 3.35429 17.3322 2.82304 16.0996C2.29179 14.8669 2.02582 13.5506 2.02515 12.1506C2.02447 10.7506 2.29044 9.43427 2.82304 8.20166C3.35564 6.96905 4.07691 5.89743 4.98686 4.98681C5.8968 4.07619 6.96842 3.35492 8.20171 2.82299C9.43499 2.29106 10.7513 2.0251 12.1507 2.0251C13.55 2.0251 14.8663 2.29106 16.0996 2.82299C17.3329 3.35492 18.4045 4.07619 19.3144 4.98681C20.2244 5.89743 20.946 6.96905 21.4793 8.20166C22.0126 9.43427 22.2782 10.7506 22.2762 12.1506C22.2741 13.5506 22.0082 14.8669 21.4783 16.0996C20.9484 17.3322 20.2271 18.4038 19.3144 19.3144C18.4018 20.225 17.3302 20.9466 16.0996 21.4792C14.869 22.0118 13.5527 22.2775 12.1507 22.2761ZM12.1507 20.251C14.412 20.251 16.3274 19.4663 17.8969 17.8968C19.4663 16.3274 20.2511 14.412 20.2511 12.1506C20.2511 9.88924 19.4663 7.97383 17.8969 6.40438C16.3274 4.83493 14.412 4.0502 12.1507 4.0502C9.88929 4.0502 7.97388 4.83493 6.40443 6.40438C4.83498 7.97383 4.05025 9.88924 4.05025 12.1506C4.05025 14.412 4.83498 16.3274 6.40443 17.8968C7.97388 19.4663 9.88929 20.251 12.1507 20.251Z" fill="#E0E4EB"/>
</svg>
