<svg width="32" height="32" viewBox="0 0 32 32" fill="none" xmlns="http://www.w3.org/2000/svg">
<path d="M13.6506 7.8003C13.6506 7.52729 13.6506 7.39273 13.6662 7.27963C13.7159 6.92219 13.8808 6.59072 14.136 6.33555C14.3911 6.08038 14.7226 5.91546 15.08 5.86582C15.1912 5.85022 15.3277 5.85022 15.6007 5.85022C15.8737 5.85022 16.0083 5.85022 16.1214 5.86582C16.4788 5.91546 16.8103 6.08038 17.0655 6.33555C17.3206 6.59072 17.4855 6.92219 17.5352 7.27963C17.5508 7.39078 17.5508 7.52729 17.5508 7.8003C17.5508 8.07331 17.5508 8.20786 17.5352 8.32097C17.4855 8.6784 17.3206 9.00987 17.0655 9.26504C16.8103 9.52021 16.4788 9.68514 16.1214 9.73477C16.0102 9.75037 15.8737 9.75037 15.6007 9.75037C15.3277 9.75037 15.1931 9.75037 15.08 9.73477C14.7226 9.68514 14.3911 9.52021 14.136 9.26504C13.8808 9.00987 13.7159 8.6784 13.6662 8.32097C13.6506 8.20981 13.6506 8.07331 13.6506 7.8003ZM13.6506 15.6006C13.6506 15.3276 13.6506 15.193 13.6662 15.0799C13.7159 14.7225 13.8808 14.391 14.136 14.1359C14.3911 13.8807 14.7226 13.7158 15.08 13.6661C15.1912 13.6505 15.3277 13.6505 15.6007 13.6505C15.8737 13.6505 16.0083 13.6505 16.1214 13.6661C16.4788 13.7158 16.8103 13.8807 17.0655 14.1359C17.3206 14.391 17.4855 14.7225 17.5352 15.0799C17.5508 15.1911 17.5508 15.3276 17.5508 15.6006C17.5508 15.8736 17.5508 16.0082 17.5352 16.1213C17.4855 16.4787 17.3206 16.8102 17.0655 17.0653C16.8103 17.3205 16.4788 17.4854 16.1214 17.5351C16.0102 17.5507 15.8737 17.5507 15.6007 17.5507C15.3277 17.5507 15.1931 17.5507 15.08 17.5351C14.7226 17.4854 14.3911 17.3205 14.136 17.0653C13.8808 16.8102 13.7159 16.4787 13.6662 16.1213C13.6506 16.0101 13.6506 15.8736 13.6506 15.6006ZM13.6506 23.4009C13.6506 23.1299 13.6506 22.9933 13.6662 22.8802C13.7162 22.5234 13.881 22.1926 14.1357 21.9379C14.3905 21.6831 14.7213 21.5183 15.0781 21.4684C15.1931 21.4528 15.3277 21.4528 15.5988 21.4528C15.8698 21.4528 16.0083 21.4528 16.1194 21.4684C16.4762 21.5183 16.807 21.6831 17.0618 21.9379C17.3165 22.1926 17.4814 22.5234 17.5313 22.8802C17.5469 22.9933 17.5469 23.1299 17.5469 23.4009C17.5469 23.672 17.5469 23.8085 17.5313 23.9216C17.4814 24.2784 17.3165 24.6092 17.0618 24.8639C16.807 25.1187 16.4762 25.2835 16.1194 25.3334C16.0063 25.349 15.8698 25.349 15.5988 25.349C15.3277 25.349 15.1912 25.349 15.0781 25.3334C14.7213 25.2835 14.3905 25.1187 14.1357 24.8639C13.881 24.6092 13.7162 24.2784 13.6662 23.9216C13.6506 23.8085 13.6506 23.672 13.6506 23.4009Z" fill="#E2E8F0"/>
</svg>
