<svg width="31" height="31" viewBox="0 0 31 31" fill="none" xmlns="http://www.w3.org/2000/svg">
<path d="M21.9583 11.625V9.04168C21.9583 7.32882 21.2779 5.68612 20.0667 4.47495C18.8556 3.26377 17.2129 2.58334 15.5 2.58334C13.7871 2.58334 12.1444 3.26377 10.9333 4.47495C9.7221 5.68612 9.04167 7.32882 9.04167 9.04168V11.625C8.01395 11.625 7.02833 12.0333 6.30163 12.76C5.57493 13.4867 5.16667 14.4723 5.16667 15.5V24.5417C5.16667 25.5694 5.57493 26.555 6.30163 27.2817C7.02833 28.0084 8.01395 28.4167 9.04167 28.4167H21.9583C22.986 28.4167 23.9717 28.0084 24.6984 27.2817C25.4251 26.555 25.8333 25.5694 25.8333 24.5417V15.5C25.8333 14.4723 25.4251 13.4867 24.6984 12.76C23.9717 12.0333 22.986 11.625 21.9583 11.625ZM11.625 9.04168C11.625 8.01396 12.0333 7.02834 12.76 6.30164C13.4867 5.57493 14.4723 5.16668 15.5 5.16668C16.5277 5.16668 17.5133 5.57493 18.24 6.30164C18.9667 7.02834 19.375 8.01396 19.375 9.04168V11.625H11.625V9.04168ZM23.25 24.5417C23.25 24.8842 23.1139 25.2128 22.8717 25.455C22.6294 25.6973 22.3009 25.8333 21.9583 25.8333H9.04167C8.6991 25.8333 8.37056 25.6973 8.12832 25.455C7.88609 25.2128 7.75 24.8842 7.75 24.5417V15.5C7.75 15.1574 7.88609 14.8289 8.12832 14.5867C8.37056 14.3444 8.6991 14.2083 9.04167 14.2083H21.9583C22.3009 14.2083 22.6294 14.3444 22.8717 14.5867C23.1139 14.8289 23.25 15.1574 23.25 15.5V24.5417Z" fill="#7E8794"/>
</svg>
