<svg width="21" height="21" viewBox="0 0 21 21" fill="none" xmlns="http://www.w3.org/2000/svg">
<g clip-path="url(#clip0_124_232)">
<path d="M10.2598 3.07793V5.12989C9.24383 5.12807 8.25024 5.42795 7.40494 5.99151C6.55965 6.55506 5.90072 7.35691 5.5117 8.29541C5.12267 9.23391 5.02107 10.2668 5.21977 11.2631C5.41846 12.2594 5.90852 13.1743 6.6278 13.8917L5.18117 15.3384C4.17667 14.334 3.49258 13.0542 3.21542 11.661C2.93827 10.2678 3.08049 8.82371 3.62411 7.51134C4.16773 6.19896 5.08833 5.07727 6.26947 4.28813C7.45061 3.49899 8.83925 3.07783 10.2598 3.07793ZM15.3384 5.18119C16.3429 6.18559 17.0269 7.46532 17.3041 8.85853C17.5813 10.2517 17.439 11.6959 16.8954 13.0082C16.3518 14.3206 15.4312 15.4423 14.2501 16.2314C13.0689 17.0206 11.6803 17.4417 10.2598 17.4416V15.3897C11.2757 15.3915 12.2693 15.0916 13.1146 14.5281C13.9599 13.9645 14.6188 13.1627 15.0078 12.2242C15.3969 11.2857 15.4985 10.2528 15.2998 9.25647C15.1011 8.26016 14.611 7.34528 13.8917 6.62782L15.3384 5.18119ZM10.2598 20.5196L6.15585 16.4157L10.2598 12.3117V20.5196ZM10.2598 8.20783V0L14.3637 4.10391L10.2598 8.20783Z" fill="#62666F"/>
</g>
<defs>
<clipPath id="clip0_124_232">
<rect width="20.5196" height="20.5196" fill="white"/>
</clipPath>
</defs>
</svg>
